<svg width="480" height="480" viewBox="0 0 480 480" fill="none" xmlns="http://www.w3.org/2000/svg">
<path d="M292.975 97.3386C291.006 76.1798 273.25 60 252 60V420L261.685 411.046C288.41 386.338 326.449 378.101 361.001 389.541L453 420C363.734 351.456 307.072 248.811 296.643 136.748L292.975 97.3386Z" fill="#2E3A97"/>
<path d="M162.293 351V132.818H249.651C265.702 132.818 279.09 135.197 289.814 139.956C300.539 144.714 308.6 151.32 313.998 159.771C319.395 168.152 322.094 177.811 322.094 188.749C322.094 197.271 320.39 204.764 316.981 211.227C313.572 217.619 308.884 222.875 302.918 226.994C297.023 231.043 290.276 233.919 282.677 235.624V237.754C290.986 238.109 298.763 240.453 306.008 244.786C313.323 249.118 319.253 255.19 323.799 263.003C328.344 270.744 330.617 279.977 330.617 290.702C330.617 302.278 327.741 312.612 321.988 321.703C316.306 330.723 307.89 337.861 296.739 343.116C285.589 348.372 271.846 351 255.51 351H162.293ZM208.422 313.287H246.029C258.884 313.287 268.259 310.837 274.154 305.936C280.049 300.964 282.996 294.359 282.996 286.121C282.996 280.084 281.54 274.757 278.628 270.141C275.716 265.524 271.562 261.902 266.164 259.274C260.837 256.646 254.481 255.332 247.094 255.332H208.422V313.287ZM208.422 224.118H242.62C248.941 224.118 254.552 223.017 259.452 220.815C264.424 218.543 268.33 215.347 271.171 211.227C274.083 207.108 275.539 202.172 275.539 196.419C275.539 188.536 272.733 182.179 267.123 177.349C261.583 172.52 253.699 170.105 243.472 170.105H208.422V224.118Z" fill="white"/>
<path d="M187.025 97.3386C188.994 76.1798 206.75 60 228 60V420L218.315 411.046C191.59 386.338 153.551 378.101 118.999 389.541L27 420C116.266 351.456 172.928 248.811 183.357 136.748L187.025 97.3386Z" fill="#DBAA2C"/>
</svg>
